<?xml version="1.0" encoding="UTF-8" standalone="no"?>
<svg xmlns="http://www.w3.org/2000/svg" xmlns:xlink="http://www.w3.org/1999/xlink" contentScriptType="application/ecmascript" contentStyleType="text/css" height="887px" preserveAspectRatio="none" style="width:1218px;height:887px;" version="1.1" viewBox="0 0 1218 887" width="1218px" zoomAndPan="magnify"><defs><filter height="300%" id="f1nke5gc60evgy" width="300%" x="-1" y="-1"><feGaussianBlur result="blurOut" stdDeviation="2.0"/><feColorMatrix in="blurOut" result="blurOut2" type="matrix" values="0 0 0 0 0 0 0 0 0 0 0 0 0 0 0 0 0 0 .4 0"/><feOffset dx="4.0" dy="4.0" in="blurOut2" result="blurOut3"/><feBlend in="SourceGraphic" in2="blurOut3" mode="normal"/></filter></defs><g><text fill="#000000" font-family="sans-serif" font-size="18" font-weight="bold" lengthAdjust="spacingAndGlyphs" textLength="94" x="10" y="26.708">Package:</text><text fill="#000000" font-family="sans-serif" font-size="18" lengthAdjust="spacingAndGlyphs" textLength="44" x="110" y="26.708">User</text><text fill="#888888" font-family="sans-serif" font-size="10" lengthAdjust="spacingAndGlyphs" textLength="0" x="13" y="40.2354"/><text fill="#000000" font-family="sans-serif" font-size="16" font-weight="bold" lengthAdjust="spacingAndGlyphs" textLength="25" x="10" y="57.4453">ID:</text><text fill="#000000" font-family="sans-serif" font-size="16" lengthAdjust="spacingAndGlyphs" textLength="38" x="40" y="57.4453">UC-4</text><text fill="#000000" font-family="sans-serif" font-size="16" font-weight="bold" lengthAdjust="spacingAndGlyphs" textLength="60" x="10" y="76.0703">Назва:</text><text fill="#000000" font-family="sans-serif" font-size="16" lengthAdjust="spacingAndGlyphs" textLength="317" x="75" y="76.0703">Реєстрація нового облікового запису.</text><text fill="#000000" font-family="sans-serif" font-size="16" font-weight="bold" lengthAdjust="spacingAndGlyphs" textLength="94" x="10" y="94.6953">Учасники:</text><text fill="#000000" font-family="sans-serif" font-size="16" lengthAdjust="spacingAndGlyphs" textLength="335" x="109" y="94.6953">Неавторизований користувач, Система.</text><text fill="#000000" font-family="sans-serif" font-size="16" font-weight="bold" lengthAdjust="spacingAndGlyphs" textLength="120" x="10" y="113.3203">Передумови:</text><text fill="#000000" font-family="sans-serif" font-size="16" lengthAdjust="spacingAndGlyphs" textLength="337" x="135" y="113.3203">Неавторизований в системі користувач.</text><text fill="#000000" font-family="sans-serif" font-size="16" font-weight="bold" lengthAdjust="spacingAndGlyphs" textLength="104" x="10" y="131.9453">Результат:</text><text fill="#000000" font-family="sans-serif" font-size="16" lengthAdjust="spacingAndGlyphs" textLength="235" x="119" y="131.9453">Створений обліковий запис.</text><text fill="#000000" font-family="sans-serif" font-size="16" font-weight="bold" lengthAdjust="spacingAndGlyphs" textLength="178" x="10" y="150.5703">Виключні ситуації:</text><text fill="#000000" font-family="sans-serif" font-size="16" lengthAdjust="spacingAndGlyphs" textLength="389" x="15" y="169.1953">E_04: Обліковий запис для студента уже існує</text><text fill="#000000" font-family="sans-serif" font-size="16" lengthAdjust="spacingAndGlyphs" textLength="219" x="15" y="187.8203">E_05: Введені невірні дані</text><text fill="#888888" font-family="sans-serif" font-size="10" lengthAdjust="spacingAndGlyphs" textLength="0" x="13" y="200.876"/><text fill="#000000" font-family="sans-serif" font-size="16" font-weight="bold" lengthAdjust="spacingAndGlyphs" textLength="182" x="10" y="218.0859">Основний сценарій:</text><text fill="#888888" font-family="sans-serif" font-size="10" lengthAdjust="spacingAndGlyphs" textLength="0" x="13" y="231.1416"/><ellipse cx="305.5" cy="272.1982" fill="#000000" filter="url(#f1nke5gc60evgy)" rx="10" ry="10" style="stroke: none; stroke-width: 1.0;"/><rect fill="#FEFECE" filter="url(#f1nke5gc60evgy)" height="33.9688" rx="12.5" ry="12.5" style="stroke: #A80036; stroke-width: 1.5;" width="569" x="21" y="302.1982"/><text fill="#000000" font-family="sans-serif" font-size="12" lengthAdjust="spacingAndGlyphs" textLength="545" x="35" y="323.3369">Неавторизований користувач натискає кнопку реєстрації нового облікового запису</text><rect fill="#FEFECE" filter="url(#f1nke5gc60evgy)" height="47.9375" rx="12.5" ry="12.5" style="stroke: #A80036; stroke-width: 1.5;" width="250" x="180.5" y="424.1045"/><text fill="#000000" font-family="sans-serif" font-size="12" lengthAdjust="spacingAndGlyphs" textLength="226" x="194.5" y="445.2432">Користувач вводить дані студента</text><text fill="#000000" font-family="sans-serif" font-size="12" lengthAdjust="spacingAndGlyphs" textLength="154" x="190.5" y="459.2119">(ПІБ, факультет, група);</text><rect fill="#FEFECE" filter="url(#f1nke5gc60evgy)" height="33.9688" rx="12.5" ry="12.5" style="stroke: #A80036; stroke-width: 1.5;" width="333" x="139" y="492.042"/><text fill="#000000" font-family="sans-serif" font-size="12" lengthAdjust="spacingAndGlyphs" textLength="309" x="153" y="513.1807">Користувач натискає кнопку "Зареєструватися"</text><rect fill="#FEFECE" filter="url(#f1nke5gc60evgy)" height="33.9688" rx="12.5" ry="12.5" style="stroke: #A80036; stroke-width: 1.5;" width="341" x="135" y="737.0459"/><text fill="#000000" font-family="sans-serif" font-size="12" lengthAdjust="spacingAndGlyphs" textLength="317" x="149" y="758.1846">Користувач зареєстрований і може залогінитися</text><ellipse cx="305.5" cy="802.0146" fill="#FFFFFF" filter="url(#f1nke5gc60evgy)" rx="11" ry="11" style="stroke: #000000; stroke-width: 1.0;"/><ellipse cx="305.5" cy="802.0146" fill="#000000" rx="6" ry="6" style="stroke: #7F7F7F; stroke-width: 1.0;"/><line style="stroke: #000000; stroke-width: 2.0;" x1="15" x2="15" y1="236.2451" y2="813.0146"/><rect fill="#FEFECE" filter="url(#f1nke5gc60evgy)" height="47.9375" rx="12.5" ry="12.5" style="stroke: #A80036; stroke-width: 1.5;" width="326" x="658.5" y="356.167"/><text fill="#000000" font-family="sans-serif" font-size="12" lengthAdjust="spacingAndGlyphs" textLength="302" x="672.5" y="377.3057">Система надає користувачу форму, де вказані</text><text fill="#000000" font-family="sans-serif" font-size="12" lengthAdjust="spacingAndGlyphs" textLength="206" x="672.5" y="391.2744">поля для вводу даних студента</text><path d="M1032.5,542.2803 L1032.5,565.9795 L1012.5,569.9795 L1032.5,573.9795 L1032.5,597.6787 A0,0 0 0 0 1032.5,597.6787 L1175.5,597.6787 A0,0 0 0 0 1175.5,597.6787 L1175.5,552.2803 L1165.5,542.2803 L1032.5,542.2803 A0,0 0 0 0 1032.5,542.2803 " fill="#AAFFAA" filter="url(#f1nke5gc60evgy)" style="stroke: #A80036; stroke-width: 1.0;"/><path d="M1165.5,542.2803 L1165.5,552.2803 L1175.5,552.2803 L1165.5,542.2803 " fill="#AAFFAA" style="stroke: #A80036; stroke-width: 1.0;"/><text fill="#000000" font-family="sans-serif" font-size="13" lengthAdjust="spacingAndGlyphs" textLength="0" x="1042.5" y="559.3472"/><text fill="#FF0000" font-family="sans-serif" font-size="13" font-weight="bold" lengthAdjust="spacingAndGlyphs" textLength="117" x="1043.5" y="574.48">Можливо E_04.</text><text fill="#000000" font-family="sans-serif" font-size="13" lengthAdjust="spacingAndGlyphs" textLength="0" x="1042.5" y="589.6128"/><rect fill="#FEFECE" filter="url(#f1nke5gc60evgy)" height="47.9375" rx="12.5" ry="12.5" style="stroke: #A80036; stroke-width: 1.5;" width="382" x="630.5" y="546.0107"/><text fill="#000000" font-family="sans-serif" font-size="12" lengthAdjust="spacingAndGlyphs" textLength="358" x="644.5" y="567.1494">Система перевіряє чи немає уже у вказаного студента</text><text fill="#000000" font-family="sans-serif" font-size="12" lengthAdjust="spacingAndGlyphs" textLength="118" x="640.5" y="581.1182">облікового запису</text><path d="M1050.5,607.6787 L1050.5,631.3779 L1030.5,635.3779 L1050.5,639.3779 L1050.5,663.0771 A0,0 0 0 0 1050.5,663.0771 L1193.5,663.0771 A0,0 0 0 0 1193.5,663.0771 L1193.5,617.6787 L1183.5,607.6787 L1050.5,607.6787 A0,0 0 0 0 1050.5,607.6787 " fill="#AAFFAA" filter="url(#f1nke5gc60evgy)" style="stroke: #A80036; stroke-width: 1.0;"/><path d="M1183.5,607.6787 L1183.5,617.6787 L1193.5,617.6787 L1183.5,607.6787 " fill="#AAFFAA" style="stroke: #A80036; stroke-width: 1.0;"/><text fill="#000000" font-family="sans-serif" font-size="13" lengthAdjust="spacingAndGlyphs" textLength="0" x="1060.5" y="624.7456"/><text fill="#FF0000" font-family="sans-serif" font-size="13" font-weight="bold" lengthAdjust="spacingAndGlyphs" textLength="117" x="1061.5" y="639.8784">Можливо E_05.</text><text fill="#000000" font-family="sans-serif" font-size="13" lengthAdjust="spacingAndGlyphs" textLength="0" x="1060.5" y="655.0112"/><rect fill="#FEFECE" filter="url(#f1nke5gc60evgy)" height="33.9688" rx="12.5" ry="12.5" style="stroke: #A80036; stroke-width: 1.5;" width="418" x="612.5" y="618.3936"/><text fill="#000000" font-family="sans-serif" font-size="12" lengthAdjust="spacingAndGlyphs" textLength="394" x="626.5" y="639.5322">Система перевіряє наявність студента за вказаними даними</text><rect fill="#FEFECE" filter="url(#f1nke5gc60evgy)" height="33.9688" rx="12.5" ry="12.5" style="stroke: #A80036; stroke-width: 1.5;" width="431" x="606" y="683.0771"/><text fill="#000000" font-family="sans-serif" font-size="12" lengthAdjust="spacingAndGlyphs" textLength="407" x="620" y="704.2158">Система створює обліковий запис і зберігає його в базу даних</text><line style="stroke: #000000; stroke-width: 2.0;" x1="600" x2="600" y1="236.2451" y2="813.0146"/><line style="stroke: #000000; stroke-width: 2.0;" x1="1198.5" x2="1198.5" y1="236.2451" y2="813.0146"/><line style="stroke: #A80036; stroke-width: 1.5;" x1="305.5" x2="305.5" y1="282.1982" y2="302.1982"/><polygon fill="#A80036" points="301.5,292.1982,305.5,302.1982,309.5,292.1982,305.5,296.1982" style="stroke: #A80036; stroke-width: 1.0;"/><line style="stroke: #A80036; stroke-width: 1.5;" x1="305.5" x2="305.5" y1="472.042" y2="492.042"/><polygon fill="#A80036" points="301.5,482.042,305.5,492.042,309.5,482.042,305.5,486.042" style="stroke: #A80036; stroke-width: 1.0;"/><line style="stroke: #A80036; stroke-width: 1.5;" x1="305.5" x2="305.5" y1="771.0146" y2="791.0146"/><polygon fill="#A80036" points="301.5,781.0146,305.5,791.0146,309.5,781.0146,305.5,785.0146" style="stroke: #A80036; stroke-width: 1.0;"/><line style="stroke: #A80036; stroke-width: 1.5;" x1="821.5" x2="821.5" y1="593.9482" y2="618.3936"/><polygon fill="#A80036" points="817.5,608.3936,821.5,618.3936,825.5,608.3936,821.5,612.3936" style="stroke: #A80036; stroke-width: 1.0;"/><line style="stroke: #A80036; stroke-width: 1.5;" x1="821.5" x2="821.5" y1="652.3623" y2="683.0771"/><polygon fill="#A80036" points="817.5,673.0771,821.5,683.0771,825.5,673.0771,821.5,677.0771" style="stroke: #A80036; stroke-width: 1.0;"/><line style="stroke: #A80036; stroke-width: 1.5;" x1="305.5" x2="305.5" y1="336.167" y2="341.167"/><line style="stroke: #A80036; stroke-width: 1.5;" x1="305.5" x2="821.5" y1="341.167" y2="341.167"/><line style="stroke: #A80036; stroke-width: 1.5;" x1="821.5" x2="821.5" y1="341.167" y2="356.167"/><polygon fill="#A80036" points="817.5,346.167,821.5,356.167,825.5,346.167,821.5,350.167" style="stroke: #A80036; stroke-width: 1.0;"/><line style="stroke: #A80036; stroke-width: 1.5;" x1="821.5" x2="821.5" y1="404.1045" y2="409.1045"/><line style="stroke: #A80036; stroke-width: 1.5;" x1="821.5" x2="305.5" y1="409.1045" y2="409.1045"/><line style="stroke: #A80036; stroke-width: 1.5;" x1="305.5" x2="305.5" y1="409.1045" y2="424.1045"/><polygon fill="#A80036" points="301.5,414.1045,305.5,424.1045,309.5,414.1045,305.5,418.1045" style="stroke: #A80036; stroke-width: 1.0;"/><line style="stroke: #A80036; stroke-width: 1.5;" x1="305.5" x2="305.5" y1="526.0107" y2="531.0107"/><line style="stroke: #A80036; stroke-width: 1.5;" x1="305.5" x2="821.5" y1="531.0107" y2="531.0107"/><line style="stroke: #A80036; stroke-width: 1.5;" x1="821.5" x2="821.5" y1="531.0107" y2="546.0107"/><polygon fill="#A80036" points="817.5,536.0107,821.5,546.0107,825.5,536.0107,821.5,540.0107" style="stroke: #A80036; stroke-width: 1.0;"/><line style="stroke: #A80036; stroke-width: 1.5;" x1="821.5" x2="821.5" y1="717.0459" y2="722.0459"/><line style="stroke: #A80036; stroke-width: 1.5;" x1="821.5" x2="305.5" y1="722.0459" y2="722.0459"/><line style="stroke: #A80036; stroke-width: 1.5;" x1="305.5" x2="305.5" y1="722.0459" y2="737.0459"/><polygon fill="#A80036" points="301.5,727.0459,305.5,737.0459,309.5,727.0459,305.5,731.0459" style="stroke: #A80036; stroke-width: 1.0;"/><text fill="#000000" font-family="sans-serif" font-size="18" lengthAdjust="spacingAndGlyphs" textLength="288" x="163.5" y="252.9531">Неавторизований користувач</text><text fill="#000000" font-family="sans-serif" font-size="18" lengthAdjust="spacingAndGlyphs" textLength="81" x="858.75" y="252.9531">Система</text><text fill="#888888" font-family="sans-serif" font-size="10" lengthAdjust="spacingAndGlyphs" textLength="0" x="1206.5" y="827.2969"/><text fill="#888888" font-family="sans-serif" font-size="10" lengthAdjust="spacingAndGlyphs" textLength="0" x="1206.5" y="838.9375"/><text fill="#888888" font-family="sans-serif" font-size="10" lengthAdjust="spacingAndGlyphs" textLength="242" x="964.5" y="850.5781">Системна динаміка. Модель прецендентів.</text><text fill="#888888" font-family="sans-serif" font-size="10" lengthAdjust="spacingAndGlyphs" textLength="139" x="1067.5" y="862.2188">НТУУ КПІ ім.І.Сікорського</text><text fill="#888888" font-family="sans-serif" font-size="10" lengthAdjust="spacingAndGlyphs" textLength="53" x="1153.5" y="873.8594">Киів-2020</text><!--MD5=[3e6f676c8ea079806286cf581e486378]
@startuml
left header
<font color=000 size=18><b>Package:</b> User

<font color=000 size=16><b>ID:</b> UC-4
<font color=000 size=16><b>Назва:</b> Реєстрація нового облікового запису.
<font color=000 size=16><b>Учасники:</b> Неавторизований користувач, Система.
<font color=000 size=16><b>Передумови:</b> Неавторизований в системі користувач.
<font color=000 size=16><b>Результат:</b> Створений обліковий запис.
<font color=000 size=16><b>Виключні ситуації:</b>
<font color=000 size=16> E_04: Обліковий запис для студента уже існує
<font color=000 size=16> E_05: Введені невірні дані

<font color=000 size=16><b>Основний сценарій:</b>

end header

|Неавторизований користувач|
start
: Неавторизований користувач натискає кнопку реєстрації нового облікового запису;

|Система|
: Система надає користувачу форму, де вказані
 поля для вводу даних студента;

|Неавторизований користувач|
: Користувач вводить дані студента
(ПІБ, факультет, група);   

: Користувач натискає кнопку "Зареєструватися";

|Система|
: Система перевіряє чи немає уже у вказаного студента
облікового запису;
note right #aaffaa

<font color=red><b> Можливо E_04.

end note
: Система перевіряє наявність студента за вказаними даними;
note right #aaffaa

<font color=red><b> Можливо E_05.

end note

: Система створює обліковий запис і зберігає його в базу даних;

|Неавторизований користувач|

: Користувач зареєстрований і може залогінитися;

stop;

right footer


Системна динаміка. Модель прецендентів.
НТУУ КПІ ім.І.Сікорського
Киів-2020
end footer
@enduml

PlantUML version 1.2020.19(Mon Oct 12 15:10:01 UTC 2020)
(GPL source distribution)
Java Runtime: Java(TM) SE Runtime Environment
JVM: Java HotSpot(TM) 64-Bit Server VM
Default Encoding: UTF-8
Language: en
Country: US
--></g></svg>