<?xml version="1.0" encoding="UTF-8" standalone="no"?>
<svg xmlns="http://www.w3.org/2000/svg" xmlns:xlink="http://www.w3.org/1999/xlink" contentScriptType="application/ecmascript" contentStyleType="text/css" height="867px" preserveAspectRatio="none" style="width:1057px;height:867px;" version="1.1" viewBox="0 0 1057 867" width="1057px" zoomAndPan="magnify"><defs><filter height="300%" id="f18mk7kdo3tm8q" width="300%" x="-1" y="-1"><feGaussianBlur result="blurOut" stdDeviation="2.0"/><feColorMatrix in="blurOut" result="blurOut2" type="matrix" values="0 0 0 0 0 0 0 0 0 0 0 0 0 0 0 0 0 0 .4 0"/><feOffset dx="4.0" dy="4.0" in="blurOut2" result="blurOut3"/><feBlend in="SourceGraphic" in2="blurOut3" mode="normal"/></filter></defs><g><text fill="#000000" font-family="sans-serif" font-size="18" font-weight="bold" lengthAdjust="spacingAndGlyphs" textLength="94" x="10" y="26.708">Package:</text><text fill="#000000" font-family="sans-serif" font-size="18" lengthAdjust="spacingAndGlyphs" textLength="44" x="110" y="26.708">User</text><text fill="#888888" font-family="sans-serif" font-size="10" lengthAdjust="spacingAndGlyphs" textLength="0" x="13" y="40.2354"/><text fill="#000000" font-family="sans-serif" font-size="16" font-weight="bold" lengthAdjust="spacingAndGlyphs" textLength="25" x="10" y="57.4453">ID:</text><text fill="#000000" font-family="sans-serif" font-size="16" lengthAdjust="spacingAndGlyphs" textLength="38" x="40" y="57.4453">UC-1</text><text fill="#000000" font-family="sans-serif" font-size="16" font-weight="bold" lengthAdjust="spacingAndGlyphs" textLength="60" x="10" y="76.0703">Назва:</text><text fill="#000000" font-family="sans-serif" font-size="16" lengthAdjust="spacingAndGlyphs" textLength="108" x="75" y="76.0703">Авторизація.</text><text fill="#000000" font-family="sans-serif" font-size="16" font-weight="bold" lengthAdjust="spacingAndGlyphs" textLength="94" x="10" y="94.6953">Учасники:</text><text fill="#000000" font-family="sans-serif" font-size="16" lengthAdjust="spacingAndGlyphs" textLength="335" x="109" y="94.6953">Неавторизований користувач, Система.</text><text fill="#000000" font-family="sans-serif" font-size="16" font-weight="bold" lengthAdjust="spacingAndGlyphs" textLength="120" x="10" y="113.3203">Передумови:</text><text fill="#000000" font-family="sans-serif" font-size="16" lengthAdjust="spacingAndGlyphs" textLength="337" x="135" y="113.3203">Неавторизований в системі користувач.</text><text fill="#000000" font-family="sans-serif" font-size="16" font-weight="bold" lengthAdjust="spacingAndGlyphs" textLength="104" x="10" y="131.9453">Результат:</text><text fill="#000000" font-family="sans-serif" font-size="16" lengthAdjust="spacingAndGlyphs" textLength="289" x="119" y="131.9453">Користувач авторизувався в системі.</text><text fill="#000000" font-family="sans-serif" font-size="16" font-weight="bold" lengthAdjust="spacingAndGlyphs" textLength="178" x="10" y="150.5703">Виключні ситуації:</text><text fill="#000000" font-family="sans-serif" font-size="16" lengthAdjust="spacingAndGlyphs" textLength="281" x="15" y="169.1953">E_00: Введеного акаунту не існує</text><text fill="#000000" font-family="sans-serif" font-size="16" lengthAdjust="spacingAndGlyphs" textLength="390" x="15" y="187.8203">E_01: Введений пароль від акаунту не дійсний</text><text fill="#888888" font-family="sans-serif" font-size="10" lengthAdjust="spacingAndGlyphs" textLength="0" x="13" y="200.876"/><text fill="#000000" font-family="sans-serif" font-size="16" font-weight="bold" lengthAdjust="spacingAndGlyphs" textLength="182" x="10" y="218.0859">Основний сценарій:</text><text fill="#888888" font-family="sans-serif" font-size="10" lengthAdjust="spacingAndGlyphs" textLength="0" x="13" y="231.1416"/><ellipse cx="219" cy="272.1982" fill="#000000" filter="url(#f18mk7kdo3tm8q)" rx="10" ry="10" style="stroke: none; stroke-width: 1.0;"/><rect fill="#FEFECE" filter="url(#f18mk7kdo3tm8q)" height="33.9688" rx="12.5" ry="12.5" style="stroke: #A80036; stroke-width: 1.5;" width="396" x="21" y="302.1982"/><text fill="#000000" font-family="sans-serif" font-size="12" lengthAdjust="spacingAndGlyphs" textLength="372" x="35" y="323.3369">Неавторизований користувач натискає кнопку логування</text><rect fill="#FEFECE" filter="url(#f18mk7kdo3tm8q)" height="33.9688" rx="12.5" ry="12.5" style="stroke: #A80036; stroke-width: 1.5;" width="267" x="85.5" y="424.1045"/><text fill="#000000" font-family="sans-serif" font-size="12" lengthAdjust="spacingAndGlyphs" textLength="243" x="99.5" y="445.2432">Користувач вводить дані для акаунту</text><rect fill="#FEFECE" filter="url(#f18mk7kdo3tm8q)" height="33.9688" rx="12.5" ry="12.5" style="stroke: #A80036; stroke-width: 1.5;" width="264" x="87" y="478.0732"/><text fill="#000000" font-family="sans-serif" font-size="12" lengthAdjust="spacingAndGlyphs" textLength="240" x="101" y="499.2119">Користувач натискає кнопку "Ввійти"</text><rect fill="#FEFECE" filter="url(#f18mk7kdo3tm8q)" height="33.9688" rx="12.5" ry="12.5" style="stroke: #A80036; stroke-width: 1.5;" width="329" x="54.5" y="716.8076"/><text fill="#000000" font-family="sans-serif" font-size="12" lengthAdjust="spacingAndGlyphs" textLength="305" x="68.5" y="737.9463">Користувач використовує свій обліковий запис</text><ellipse cx="219" cy="781.7764" fill="#FFFFFF" filter="url(#f18mk7kdo3tm8q)" rx="11" ry="11" style="stroke: #000000; stroke-width: 1.0;"/><ellipse cx="219" cy="781.7764" fill="#000000" rx="6" ry="6" style="stroke: #7F7F7F; stroke-width: 1.0;"/><line style="stroke: #000000; stroke-width: 2.0;" x1="15" x2="15" y1="236.2451" y2="792.7764"/><rect fill="#FEFECE" filter="url(#f18mk7kdo3tm8q)" height="47.9375" rx="12.5" ry="12.5" style="stroke: #A80036; stroke-width: 1.5;" width="351" x="475.5" y="356.167"/><text fill="#000000" font-family="sans-serif" font-size="12" lengthAdjust="spacingAndGlyphs" textLength="302" x="489.5" y="377.3057">Система надає користувачу форму, де вказані</text><text fill="#000000" font-family="sans-serif" font-size="12" lengthAdjust="spacingAndGlyphs" textLength="319" x="497.5" y="391.2744">поля для вводу імені акаунту та пароля від нього</text><path d="M840,522.042 L840,545.7412 L820,549.7412 L840,553.7412 L840,577.4404 A0,0 0 0 0 840,577.4404 L984,577.4404 A0,0 0 0 0 984,577.4404 L984,532.042 L974,522.042 L840,522.042 A0,0 0 0 0 840,522.042 " fill="#AAFFAA" filter="url(#f18mk7kdo3tm8q)" style="stroke: #A80036; stroke-width: 1.0;"/><path d="M974,522.042 L974,532.042 L984,532.042 L974,522.042 " fill="#AAFFAA" style="stroke: #A80036; stroke-width: 1.0;"/><text fill="#000000" font-family="sans-serif" font-size="13" lengthAdjust="spacingAndGlyphs" textLength="0" x="850" y="539.1089"/><text fill="#FF0000" font-family="sans-serif" font-size="13" font-weight="bold" lengthAdjust="spacingAndGlyphs" textLength="118" x="851" y="554.2417">Можливо E_00.</text><text fill="#000000" font-family="sans-serif" font-size="13" lengthAdjust="spacingAndGlyphs" textLength="0" x="850" y="569.3745"/><rect fill="#FEFECE" filter="url(#f18mk7kdo3tm8q)" height="33.9688" rx="12.5" ry="12.5" style="stroke: #A80036; stroke-width: 1.5;" width="338" x="482" y="532.7568"/><text fill="#000000" font-family="sans-serif" font-size="12" lengthAdjust="spacingAndGlyphs" textLength="314" x="496" y="553.8955">Система перевіряє наявність введеного акаунту</text><path d="M889,587.4404 L889,611.1396 L869,615.1396 L889,619.1396 L889,642.8389 A0,0 0 0 0 889,642.8389 L1032,642.8389 A0,0 0 0 0 1032,642.8389 L1032,597.4404 L1022,587.4404 L889,587.4404 A0,0 0 0 0 889,587.4404 " fill="#AAFFAA" filter="url(#f18mk7kdo3tm8q)" style="stroke: #A80036; stroke-width: 1.0;"/><path d="M1022,587.4404 L1022,597.4404 L1032,597.4404 L1022,587.4404 " fill="#AAFFAA" style="stroke: #A80036; stroke-width: 1.0;"/><text fill="#000000" font-family="sans-serif" font-size="13" lengthAdjust="spacingAndGlyphs" textLength="0" x="899" y="604.5073"/><text fill="#FF0000" font-family="sans-serif" font-size="13" font-weight="bold" lengthAdjust="spacingAndGlyphs" textLength="117" x="900" y="619.6401">Можливо E_01.</text><text fill="#000000" font-family="sans-serif" font-size="13" lengthAdjust="spacingAndGlyphs" textLength="0" x="899" y="634.7729"/><rect fill="#FEFECE" filter="url(#f18mk7kdo3tm8q)" height="33.9688" rx="12.5" ry="12.5" style="stroke: #A80036; stroke-width: 1.5;" width="436" x="433" y="598.1553"/><text fill="#000000" font-family="sans-serif" font-size="12" lengthAdjust="spacingAndGlyphs" textLength="412" x="447" y="619.2939">Система перевіряє правильність введеного паролю від акаунту</text><rect fill="#FEFECE" filter="url(#f18mk7kdo3tm8q)" height="33.9688" rx="12.5" ry="12.5" style="stroke: #A80036; stroke-width: 1.5;" width="363" x="469.5" y="662.8389"/><text fill="#000000" font-family="sans-serif" font-size="12" lengthAdjust="spacingAndGlyphs" textLength="339" x="483.5" y="683.9775">Система надає користувачу доступ до його акаунту</text><line style="stroke: #000000; stroke-width: 2.0;" x1="427" x2="427" y1="236.2451" y2="792.7764"/><line style="stroke: #000000; stroke-width: 2.0;" x1="1037" x2="1037" y1="236.2451" y2="792.7764"/><line style="stroke: #A80036; stroke-width: 1.5;" x1="219" x2="219" y1="282.1982" y2="302.1982"/><polygon fill="#A80036" points="215,292.1982,219,302.1982,223,292.1982,219,296.1982" style="stroke: #A80036; stroke-width: 1.0;"/><line style="stroke: #A80036; stroke-width: 1.5;" x1="219" x2="219" y1="458.0732" y2="478.0732"/><polygon fill="#A80036" points="215,468.0732,219,478.0732,223,468.0732,219,472.0732" style="stroke: #A80036; stroke-width: 1.0;"/><line style="stroke: #A80036; stroke-width: 1.5;" x1="219" x2="219" y1="750.7764" y2="770.7764"/><polygon fill="#A80036" points="215,760.7764,219,770.7764,223,760.7764,219,764.7764" style="stroke: #A80036; stroke-width: 1.0;"/><line style="stroke: #A80036; stroke-width: 1.5;" x1="651" x2="651" y1="566.7256" y2="598.1553"/><polygon fill="#A80036" points="647,588.1553,651,598.1553,655,588.1553,651,592.1553" style="stroke: #A80036; stroke-width: 1.0;"/><line style="stroke: #A80036; stroke-width: 1.5;" x1="651" x2="651" y1="632.124" y2="662.8389"/><polygon fill="#A80036" points="647,652.8389,651,662.8389,655,652.8389,651,656.8389" style="stroke: #A80036; stroke-width: 1.0;"/><line style="stroke: #A80036; stroke-width: 1.5;" x1="219" x2="219" y1="336.167" y2="341.167"/><line style="stroke: #A80036; stroke-width: 1.5;" x1="219" x2="651" y1="341.167" y2="341.167"/><line style="stroke: #A80036; stroke-width: 1.5;" x1="651" x2="651" y1="341.167" y2="356.167"/><polygon fill="#A80036" points="647,346.167,651,356.167,655,346.167,651,350.167" style="stroke: #A80036; stroke-width: 1.0;"/><line style="stroke: #A80036; stroke-width: 1.5;" x1="651" x2="651" y1="404.1045" y2="409.1045"/><line style="stroke: #A80036; stroke-width: 1.5;" x1="651" x2="219" y1="409.1045" y2="409.1045"/><line style="stroke: #A80036; stroke-width: 1.5;" x1="219" x2="219" y1="409.1045" y2="424.1045"/><polygon fill="#A80036" points="215,414.1045,219,424.1045,223,414.1045,219,418.1045" style="stroke: #A80036; stroke-width: 1.0;"/><line style="stroke: #A80036; stroke-width: 1.5;" x1="219" x2="219" y1="512.042" y2="517.042"/><line style="stroke: #A80036; stroke-width: 1.5;" x1="219" x2="651" y1="517.042" y2="517.042"/><line style="stroke: #A80036; stroke-width: 1.5;" x1="651" x2="651" y1="517.042" y2="532.7568"/><polygon fill="#A80036" points="647,522.7568,651,532.7568,655,522.7568,651,526.7568" style="stroke: #A80036; stroke-width: 1.0;"/><line style="stroke: #A80036; stroke-width: 1.5;" x1="651" x2="651" y1="696.8076" y2="701.8076"/><line style="stroke: #A80036; stroke-width: 1.5;" x1="651" x2="219" y1="701.8076" y2="701.8076"/><line style="stroke: #A80036; stroke-width: 1.5;" x1="219" x2="219" y1="701.8076" y2="716.8076"/><polygon fill="#A80036" points="215,706.8076,219,716.8076,223,706.8076,219,710.8076" style="stroke: #A80036; stroke-width: 1.0;"/><text fill="#000000" font-family="sans-serif" font-size="18" lengthAdjust="spacingAndGlyphs" textLength="288" x="77" y="252.9531">Неавторизований користувач</text><text fill="#000000" font-family="sans-serif" font-size="18" lengthAdjust="spacingAndGlyphs" textLength="81" x="691.5" y="252.9531">Система</text><text fill="#888888" font-family="sans-serif" font-size="10" lengthAdjust="spacingAndGlyphs" textLength="0" x="1045" y="807.0586"/><text fill="#888888" font-family="sans-serif" font-size="10" lengthAdjust="spacingAndGlyphs" textLength="0" x="1045" y="818.6992"/><text fill="#888888" font-family="sans-serif" font-size="10" lengthAdjust="spacingAndGlyphs" textLength="242" x="803" y="830.3398">Системна динаміка. Модель прецендентів.</text><text fill="#888888" font-family="sans-serif" font-size="10" lengthAdjust="spacingAndGlyphs" textLength="139" x="906" y="841.9805">НТУУ КПІ ім.І.Сікорського</text><text fill="#888888" font-family="sans-serif" font-size="10" lengthAdjust="spacingAndGlyphs" textLength="53" x="992" y="853.6211">Киів-2020</text><!--MD5=[0ccf0cafd9e185726bfa1fa0ea6b9a88]
@startuml
left header
<font color=000 size=18><b>Package:</b> User

<font color=000 size=16><b>ID:</b> UC-1
<font color=000 size=16><b>Назва:</b> Авторизація.
<font color=000 size=16><b>Учасники:</b> Неавторизований користувач, Система.
<font color=000 size=16><b>Передумови:</b> Неавторизований в системі користувач.
<font color=000 size=16><b>Результат:</b> Користувач авторизувався в системі.
<font color=000 size=16><b>Виключні ситуації:</b>
<font color=000 size=16> E_00: Введеного акаунту не існує
<font color=000 size=16> E_01: Введений пароль від акаунту не дійсний 

<font color=000 size=16><b>Основний сценарій:</b>

end header

|Неавторизований користувач|
start
: Неавторизований користувач натискає кнопку логування;

|Система|
: Система надає користувачу форму, де вказані
   поля для вводу імені акаунту та пароля від нього;

|Неавторизований користувач|
: Користувач вводить дані для акаунту;   

: Користувач натискає кнопку "Ввійти";

|Система|
: Система перевіряє наявність введеного акаунту;
note right #aaffaa

<font color=red><b> Можливо E_00.

end note

: Система перевіряє правильність введеного паролю від акаунту;

note right #aaffaa

<font color=red><b> Можливо E_01.

end note

: Система надає користувачу доступ до його акаунту;

|Неавторизований користувач|

: Користувач використовує свій обліковий запис;

stop;

right footer


Education Control System. Модель прецендентів.
НТУУ КПІ ім.І.Сікорського
Киів-2020
end footer
@enduml

PlantUML version 1.2020.19(Mon Oct 12 15:10:01 UTC 2020)
(GPL source distribution)
Java Runtime: Java(TM) SE Runtime Environment
JVM: Java HotSpot(TM) 64-Bit Server VM
Default Encoding: UTF-8
Language: en
Country: US
--></g></svg>
